<svg width="102" height="38" viewBox="0 0 102 38" fill="none" xmlns="http://www.w3.org/2000/svg">
<path d="M4.25 18.3V33.75H9.65V37H0.5V0.499998H9.15V3.75H4.25V17.2H7.8V18.3H4.25ZM15.6318 0.499998V37H12.1318V0.499998H15.6318ZM25.8191 4.15C25.0191 4.15 24.4191 4.25 24.0191 4.45C23.6191 4.65 23.4191 5.01667 23.4191 5.55V7H27.8191V9.55H23.4191V37H19.9191V11.55C19.9191 10.7833 19.9858 10.1167 20.1191 9.55H17.7691V7H20.8691C21.6691 5.13333 22.8191 3.58333 24.3191 2.35C25.8525 1.11666 27.4025 0.499998 28.9691 0.499998H29.6191V4.85C28.5858 4.38333 27.3191 4.15 25.8191 4.15ZM32.5508 29.95C32.5508 31.5833 32.7841 32.6833 33.2508 33.25C33.7508 33.8167 34.4174 34.1 35.2508 34.1C36.6508 34.1 37.4008 32.4 37.5008 29L37.6508 23.15H38.3508L38.5008 29.15C38.5674 31.6167 38.1841 33.6333 37.3508 35.2C36.5174 36.7333 35.2841 37.5 33.6508 37.5C32.0841 37.5 30.9174 37.05 30.1508 36.15C29.4174 35.25 29.0508 33.75 29.0508 31.65V13.3C29.0508 10.9667 29.5341 9.25 30.5008 8.15C31.4674 7.05 32.7508 6.5 34.3508 6.5C35.7841 6.5 36.8341 6.96667 37.5008 7.9C38.2008 8.8 38.5508 10.3 38.5508 12.4V20.4H32.5508V29.95ZM34.0008 9.9C33.4341 9.9 33.0508 10.1333 32.8508 10.6C32.6508 11.0667 32.5508 11.8 32.5508 12.8V19.7H35.5508V14.05C35.5508 12.35 35.4341 11.2333 35.2008 10.7C34.9674 10.1667 34.5674 9.9 34.0008 9.9ZM42.0586 7H45.5586V7.55L44.3586 15.15L44.8586 15.25C45.3253 11.8167 45.9419 9.5 46.7086 8.3C47.4753 7.1 48.4086 6.5 49.5086 6.5C50.4419 6.5 51.2086 6.86667 51.8086 7.6C52.4086 8.33333 52.7086 9.31667 52.7086 10.55V37H49.2086V12.5C49.2086 11.5667 49.1253 10.9 48.9586 10.5C48.7919 10.1 48.4753 9.9 48.0086 9.9C47.3086 9.9 46.7253 10.6667 46.2586 12.2C45.7919 13.7333 45.5586 15.6667 45.5586 18V37H42.0586V7ZM67.0039 0.499998V37H63.5039V0.499998H67.0039ZM69.5912 3.05H74.8912V0.499998H69.5912V3.05ZM73.9912 7V37H70.4912V7H73.9912ZM80.9785 29.95C80.9785 31.5833 81.2118 32.6833 81.6785 33.25C82.1785 33.8167 82.8452 34.1 83.6785 34.1C85.0785 34.1 85.8285 32.4 85.9285 29L86.0785 23.15H86.7785L86.9285 29.15C86.9952 31.6167 86.6118 33.6333 85.7785 35.2C84.9452 36.7333 83.7118 37.5 82.0785 37.5C80.5118 37.5 79.3452 37.05 78.5785 36.15C77.8452 35.25 77.4785 33.75 77.4785 31.65V13.3C77.4785 10.9667 77.9618 9.25 78.9285 8.15C79.8952 7.05 81.1785 6.5 82.7785 6.5C84.2118 6.5 85.2618 6.96667 85.9285 7.9C86.6285 8.8 86.9785 10.3 86.9785 12.4V20.4H80.9785V29.95ZM82.4285 9.9C81.8618 9.9 81.4785 10.1333 81.2785 10.6C81.0785 11.0667 80.9785 11.8 80.9785 12.8V19.7H83.9785V14.05C83.9785 12.35 83.8618 11.2333 83.6285 10.7C83.3952 10.1667 82.9952 9.9 82.4285 9.9ZM90.4863 33.45V15C90.4863 12.0333 90.853 9.88333 91.5863 8.55C92.353 7.18333 93.5363 6.5 95.1363 6.5C96.2363 6.5 97.3863 7.05 98.5863 8.15L98.8863 7.85L97.6363 6.55V0.499998H101.136V37H97.6863V36.45L98.8363 28.85L98.3363 28.75C97.8697 32.1833 97.253 34.5 96.4863 35.7C95.7197 36.9 94.7863 37.5 93.6863 37.5C92.753 37.5 91.9863 37.1333 91.3863 36.4C90.7863 35.6667 90.4863 34.6833 90.4863 33.45ZM94.0863 14.7V31.5C94.0863 33.2333 94.5197 34.1 95.3863 34.1C95.753 34.1 96.103 33.75 96.4363 33.05C96.803 32.35 97.0863 31.3833 97.2863 30.15C97.5197 28.9167 97.6363 27.5667 97.6363 26.1V10.7C96.9697 10.0333 96.253 9.7 95.4863 9.7C94.9863 9.7 94.6197 10.0333 94.3863 10.7C94.1863 11.3333 94.0863 12.6667 94.0863 14.7Z" fill="white"/>
</svg>
